<?xml version="1.0" encoding="utf-8"?>
<!-- Generator: Adobe Illustrator 26.1.0, SVG Export Plug-In . SVG Version: 6.00 Build 0)  -->
<svg version="1.1" xmlns="http://www.w3.org/2000/svg" xmlns:xlink="http://www.w3.org/1999/xlink" x="0px" y="0px"
	 viewBox="0 0 1372.4 1065.9" style="enable-background:new 0 0 1372.4 1065.9;" xml:space="preserve">
<style type="text/css">
	.st0{display:none;}
	.st1{display:inline;fill:#FFFFFF;stroke:#D62659;stroke-miterlimit:10;}
	.st2{display:inline;fill:none;}
	.st3{display:inline;fill:#D62659;}
	.st4{font-family:'Arial-BoldMT';}
	.st5{font-size:22px;}
	.st6{display:inline;}
	.st7{fill:none;}
	.st8{fill:#D62659;}
	.st9{display:inline;fill:none;stroke:#D62659;stroke-miterlimit:10;}
	.st10{display:inline;opacity:0.51;fill:#FFFFFF;stroke:#D62659;stroke-miterlimit:10;}
	.st11{display:inline;opacity:0.51;fill:#D62659;}
	.st12{display:inline;opacity:0.51;}
	.st13{display:inline;opacity:0.51;fill:none;stroke:#D62659;stroke-miterlimit:10;}
	.st14{opacity:0.5;}
	.st15{fill:#9C1F61;}
	.st16{fill:#7ED3F1;}
	.st17{fill:#8DC63F;}
	.st18{fill:#F99C1C;}
	.st19{fill:#91CE9D;}
	.st20{fill:#A7A9AC;}
	.st21{fill:#ED2024;}
	.st22{fill:#4788C8;}
	.st23{fill:#F280A3;}
	.st24{fill:#E55E8F;}
	.st25{fill:#B6DBF4;}
	.st26{fill:#E5C926;}
	.st27{fill:#BBA130;}
	.st28{fill:#A5A4A4;}
	.st29{fill:#878787;}
	.st30{fill:none;stroke:#000000;stroke-width:2;stroke-miterlimit:10;}
	.st31{fill:none;stroke:#000000;stroke-miterlimit:10;}
	.st32{fill:none;stroke:#000000;stroke-width:4;stroke-miterlimit:10;}
	.st33{fill:none;stroke:#000000;stroke-width:7;stroke-miterlimit:10;}
	.st34{font-size:10px;}
</style>
<g id="original_image" class="st0">
	
		<image style="display:inline;overflow:visible;" width="980" height="707" xlink:href="9FEFC9DEA5ECCBBD.jpg"  transform="matrix(1.2859 0 0 1.2859 22.2425 55.1233)">
	</image>
	<line class="st1" x1="1239.5" y1="854.6" x2="1239.5" y2="134.6"/>
	<rect x="1252.7" y="359.2" class="st2" width="52.4" height="54.8"/>
	<text transform="matrix(1 0 0 1 1252.7371 374.9294)" class="st3 st4 st5">10”</text>
	<g class="st6">
		<rect x="568.5" y="956.3" class="st7" width="71.8" height="43.9"/>
		<text transform="matrix(1 0 0 1 568.527 972.0934)" class="st8 st4 st5">12.7”</text>
	</g>
	<line class="st9" x1="258.3" y1="934.3" x2="1172.7" y2="934.3"/>
</g>
<g id="orig_light" class="st0">
	
		<image style="display:inline;overflow:visible;opacity:0.51;" width="980" height="707" xlink:href="9FEFC9DEA5ECCBBF.jpg"  transform="matrix(1.2859 0 0 1.2859 22.5701 55.1233)">
	</image>
	<line class="st10" x1="1239.9" y1="854.6" x2="1239.9" y2="134.6"/>
	<rect x="1253.1" y="359.2" class="st2" width="52.4" height="54.8"/>
	<text transform="matrix(1 0 0 1 1253.0646 374.9294)" class="st11 st4 st5">10”</text>
	<g class="st12">
		<rect x="568.9" y="956.3" class="st7" width="71.8" height="43.9"/>
		<text transform="matrix(1 0 0 1 568.8546 972.0934)" class="st8 st4 st5">12.7”</text>
	</g>
	<line class="st13" x1="258.6" y1="934.3" x2="1173" y2="934.3"/>
	<rect x="57.7" y="21.4" class="st2" width="257" height="80.3"/>
	<text transform="matrix(1 0 0 1 57.6836 37.1194)" class="st6"><tspan x="0" y="0" class="st4 st5">SCALE</tspan><tspan x="0" y="26.4" class="st4 st5">1’ = 0.1”</tspan><tspan x="0" y="52.8" class="st4 st5">1/120</tspan></text>
</g>
<g id="areas" class="st14">
	<rect x="330.2" y="718.6" class="st15" width="133.5" height="132.3"/>
	<rect x="674.2" y="612.9" class="st16" width="75.5" height="32.5"/>
	<g>
		<rect x="526.4" y="137.6" class="st17" width="29.2" height="133.8"/>
		<rect x="526.4" y="271.4" class="st17" width="22" height="108.1"/>
		<rect x="526.4" y="454.2" class="st17" width="22" height="142.2"/>
		<rect x="508.2" y="668.4" class="st17" width="19.8" height="112.1"/>
		<rect x="466.2" y="182.5" class="st17" width="18.1" height="69.3"/>
		<rect x="463.8" y="279.8" class="st17" width="21.8" height="97.3"/>
		<rect x="463.7" y="467.2" class="st17" width="22" height="121.6"/>
		<rect x="290.7" y="447.3" class="st17" width="74.4" height="19.4"/>
		<rect x="437.2" y="447.3" class="st17" width="25.3" height="19.4"/>
		<rect x="674.6" y="732.1" class="st17" width="19.8" height="55.8"/>
		<rect x="725.4" y="731.8" class="st17" width="19.8" height="55.8"/>
	</g>
	<rect x="83.5" y="353.7" width="83" height="136.6"/>
	<rect x="767.8" y="596.4" class="st18" width="115.8" height="88.4"/>
	<rect x="883" y="596.4" class="st19" width="134.2" height="88.4"/>
	<rect x="1049.5" y="596.4" class="st20" width="119.3" height="163.6"/>
	<rect x="954.8" y="760" class="st21" width="216.4" height="90.9"/>
	<rect x="730.1" y="760.1" class="st22" width="131.3" height="90.8"/>
	<rect x="548.4" y="493.9" class="st23" width="70.6" height="102.6"/>
	<rect x="619.1" y="493.9" class="st24" width="65.6" height="102.6"/>
	<rect x="684.6" y="493.9" class="st23" width="118" height="102.6"/>
	<rect x="802.6" y="493.9" class="st25" width="185" height="102.6"/>
	<rect x="987.6" y="414" class="st26" width="182.5" height="182.5"/>
	<rect x="987.6" y="242" class="st27" width="182.5" height="172"/>
	<rect x="987.6" y="137.6" class="st26" width="183.9" height="104.4"/>
	<rect x="849.3" y="139.3" class="st28" width="138.3" height="231.8"/>
	<rect x="672.2" y="137.6" class="st29" width="177.1" height="233.5"/>
	<rect x="555.6" y="137.6" class="st28" width="116.6" height="233.5"/>
</g>
<g id="window">
	<line class="st30" x1="490.7" y1="137.6" x2="518.9" y2="137.6"/>
	<line class="st30" x1="692.5" y1="137.6" x2="720.7" y2="137.6"/>
	<line class="st30" x1="894.1" y1="137.6" x2="922.3" y2="137.6"/>
	<line class="st30" x1="894.2" y1="850.8" x2="922.4" y2="850.8"/>
	<line class="st30" x1="1052.7" y1="850.8" x2="1080.9" y2="850.8"/>
	<line class="st30" x1="1171.5" y1="674.2" x2="1171.5" y2="702.3"/>
	<line class="st30" x1="1171.5" y1="300.1" x2="1171.5" y2="328.2"/>
</g>
<g id="doors">
	<path class="st31" d="M528,612c-7.8,0-15.7,0-23.5,0c0.1,2.5,0.7,6.8,3.2,11.1c5.9,9.8,17.1,10.9,18.6,11.1c-1.4,0-10.1,0.4-16.2,8
		c-4.7,5.8-5.1,12.2-5.1,14.2c7.7,0,15.4,0,23,0"/>
	<path class="st31" d="M721.3,787.5c0-7.8,0-15.7,0-23.5c-2.6,0.1-6.9,0.7-11.3,3.2c-10,5.9-11.1,17.1-11.3,18.6"/>
	<path class="st31" d="M721.3,850.8c0,7.8,0,15.7,0,23.5c-2.6-0.1-6.9-0.7-11.3-3.2c-10-5.9-11.1-17.1-11.3-18.6"/>
	<path class="st31" d="M457.8,676.4c0-7.8,0-15.7,0-23.5c-2.6,0.1-6.9,0.7-11.3,3.2c-10,5.9-11.1,17.1-11.3,18.6"/>
	<path class="st31" d="M457.8,592.4c0,7.8,0,15.7,0,23.5c-2.6-0.1-6.9-0.7-11.3-3.2c-10-5.9-11.1-17.1-11.3-18.6"/>
	<path class="st31" d="M328.7,800.1c7.8,0,15.7,0,23.5,0c-0.1,2.6-0.7,6.9-3.2,11.3c-5.9,10-17.1,11.1-18.6,11.3"/>
	<path class="st31" d="M393.4,466.5c0,7.8,0,15.7,0,23.5c-2.6-0.1-6.9-0.7-11.3-3.2c-10-5.9-11.1-17.1-11.3-18.6"/>
	<path class="st31" d="M410.9,466.5c0,7.8,0,15.7,0,23.5c2.6-0.1,6.9-0.7,11.3-3.2c10-5.9,11.1-17.1,11.3-18.6"/>
	<path class="st31" d="M367.3,377.1c0-7.8,0-15.7,0-23.5c2.6,0.1,6.9,0.7,11.3,3.2c10,5.9,11.1,17.1,11.3,18.6"/>
	<path class="st31" d="M357.8,377.1c0-7.8,0-15.7,0-23.5c-2.6,0.1-6.9,0.7-11.3,3.2c-10,5.9-11.1,17.1-11.3,18.6"/>
	<path class="st31" d="M258.9,491.3c0,7.8,0,15.7,0,23.5c-2.6-0.1-6.9-0.7-11.3-3.2c-10-5.9-11.1-17.1-11.3-18.6"/>
	<path class="st31" d="M280.5,137.5c0-7.8,0-15.7,0-23.5c2.6,0.1,6.9,0.7,11.3,3.2c10,5.9,11.1,17.1,11.3,18.6"/>
	<path class="st31" d="M463.8,274.7c-7.8,0-15.7,0-23.5,0c0.1-2.7,0.7-7.2,3.2-11.8c5.9-10.4,17.1-11.6,18.6-11.8"/>
	<path class="st31" d="M356.9,182.3c0,0,0,15.2,0,23c-2.6-0.1-6.9-0.7-11.3-3.2c-10-5.9-11.1-17.1-11.3-18.6"/>
	<path class="st31" d="M1044.8,596.4c0-7.8,0-15.7,0-23.5c-2.6,0.1-6.9,0.7-11.3,3.2c-10,5.9-11.1,17.1-11.3,18.6"/>
	<path class="st31" d="M1123.8,137.5c0-7.8,0-15.7,0-23.5c2.6,0.1,6.9,0.7,11.3,3.2c10,5.9,11.1,17.1,11.3,18.6"/>
	<rect x="165.3" y="429.3" class="st31" width="59.3" height="60"/>
	<rect x="92.9" y="429.3" class="st31" width="59.3" height="60"/>
</g>
<g id="wall_internal">
	<line class="st32" x1="336.2" y1="377.1" x2="263.3" y2="377.1"/>
	<line class="st32" x1="368.4" y1="377.1" x2="357" y2="377.1"/>
	<polyline class="st32" points="463.8,274 463.8,377.1 389.5,377.1 	"/>
	<polyline class="st32" points="356.8,182.5 463.8,182.5 463.8,182.8 463.8,251.8 	"/>
	<line class="st32" x1="335.4" y1="182.5" x2="262.5" y2="182.5"/>
	<line class="st32" x1="463.8" y1="279.4" x2="263.3" y2="279.4"/>
	<line class="st32" x1="362.7" y1="377.1" x2="362.7" y2="182.5"/>
	<line class="st32" x1="1171.5" y1="596.4" x2="1044.8" y2="596.4"/>
	<polyline class="st32" points="730.1,850.8 730.1,787.4 720.8,787.4 	"/>
	<polyline class="st32" points="528,655.7 528,787.4 699.2,787.4 	"/>
	<polyline class="st32" points="528,612.9 528,596.4 528.2,596.4 1023.9,596.4 	"/>
	<line class="st32" x1="330.2" y1="800.1" x2="330.2" y2="718.6"/>
	<line class="st32" x1="402.5" y1="546.2" x2="402.5" y2="467.2"/>
	<polyline class="st32" points="263.3,718.6 463.7,718.6 463.7,652.4 	"/>
	<line class="st32" x1="262" y1="546.2" x2="462.4" y2="546.2"/>
	<polyline class="st32" points="432.9,466.7 463.7,466.7 463.7,616.4 	"/>
	<line class="st32" x1="392.6" y1="466.7" x2="411.7" y2="466.7"/>
	<line class="st32" x1="372" y1="466.7" x2="263.3" y2="466.7"/>
	<line class="st32" x1="330.2" y1="850.8" x2="330.2" y2="821.7"/>
	<line class="st32" x1="290.7" y1="466.7" x2="290.7" y2="443.7"/>
	<line class="st32" x1="290.7" y1="377.1" x2="290.7" y2="400.7"/>
	<line class="st32" x1="263.3" y1="634.1" x2="427.4" y2="634.1"/>
	<line class="st32" x1="456.8" y1="675.8" x2="464.7" y2="675.8"/>
	<line class="st32" x1="456.8" y1="592.4" x2="464.7" y2="592.4"/>
	<polyline class="st32" points="436.1,592.4 427.4,592.4 427.4,675.8 427.5,675.8 436.2,675.8 	"/>
</g>
<g id="wall_external">
	<polyline class="st33" points="280.4,137.3 263.3,137.3 263.3,377.1 	"/>
	<polyline class="st33" points="93.9,490.3 83.5,490.3 83.5,353.7 263.3,353.7 	"/>
	<line class="st33" x1="166.6" y1="490.3" x2="151.2" y2="490.3"/>
	<line class="st33" x1="239" y1="490.3" x2="223.7" y2="490.3"/>
	<polyline class="st33" points="263.3,464.3 263.3,850.8 698.4,850.8 	"/>
	<line class="st33" x1="721.1" y1="850.8" x2="894.3" y2="850.8"/>
	<line class="st33" x1="1052.7" y1="850.8" x2="922.5" y2="850.8"/>
	<polyline class="st33" points="1171.3,702.6 1171.3,850.8 1081.1,850.8 	"/>
	<line class="st33" x1="1171.5" y1="674.2" x2="1171.5" y2="328.2"/>
	<polyline class="st33" points="1145.1,137.5 1171.5,137.5 1171.5,300.1 	"/>
	<line class="st33" x1="1124.6" y1="137.5" x2="922.7" y2="137.5"/>
	<line class="st33" x1="894.1" y1="137.6" x2="720.7" y2="137.6"/>
	<line class="st33" x1="692.5" y1="137.6" x2="518.9" y2="137.6"/>
	<line class="st33" x1="490.7" y1="137.6" x2="303.1" y2="137.6"/>
</g>
<g id="labels">
	<rect x="310.9" y="575.6" class="st7" width="116.5" height="18.6"/>
	<text transform="matrix(1 0 0 1 345.7915 582.8089)" class="st4 st34">Restroom</text>
	<rect x="310.9" y="677.7" class="st7" width="116.5" height="18.6"/>
	<text transform="matrix(1 0 0 1 345.7915 684.8553)" class="st4 st34">Restroom</text>
	<text transform="matrix(1 0 0 1 580.7239 704.843)" class="st4 st34">Kitchen</text>
	<rect x="374.6" y="499.1" class="st7" width="116.5" height="60.9"/>
	<text transform="matrix(1 0 0 1 412.8487 506.2686)"><tspan x="0" y="0" class="st4 st34">Amber’s </tspan><tspan x="5.8" y="12" class="st4 st34">Office</tspan></text>
	<rect x="273" y="501.7" class="st7" width="116.5" height="18.6"/>
	<text transform="matrix(1 0 0 1 305.3805 508.8807)" class="st4 st34">Classroom</text>
	<rect x="173.1" y="411.4" class="st7" width="116.5" height="18.6"/>
	<text transform="matrix(1 0 0 1 198.2987 418.5217)" class="st4 st34">Loading Dock</text>
	<text transform="matrix(1 0 0 1 90.1695 421.2805)" class="st4 st34">Blacksmithing</text>
	<text transform="matrix(1 0 0 1 370.7129 326.7439)" class="st4 st34">Conference Room</text>
	<text transform="matrix(1 0 0 1 288.2383 323.7678)" class="st4 st34">Staff Office</text>
	<text transform="matrix(1 0 0 1 371.7697 230.5227)"><tspan x="0" y="0" class="st4 st34">Classes &amp; Events </tspan><tspan x="8.9" y="12" class="st4 st34">Storage Room</tspan></text>
	<text transform="matrix(1 0 0 1 286.5537 228.6536)"><tspan x="0" y="0" class="st4 st34">Maintinence </tspan><tspan x="11.7" y="12" class="st4 st34">Storage</tspan></text>
	<rect x="279" y="776.8" class="st7" width="37.8" height="33.9"/>
	<text transform="matrix(1 0 0 1 284.0289 783.9485)"><tspan x="0" y="0" class="st4 st34">Utility</tspan><tspan x="-1.4" y="12" class="st4 st34">Closet</tspan></text>
	<text transform="matrix(1 0 0 1 381.3308 787.4504)" class="st4 st34">Jewelry</text>
	<text transform="matrix(1 0 0 1 674.462 906.869)" class="st4 st34">Front Entrance</text>
	<text transform="matrix(1 0 0 1 685.6455 631.0028)" class="st4 st34">Front Desk</text>
	<text transform="matrix(1 0 0 1 799.6468 643.1692)" class="st4 st34">3D Printing</text>
	<text transform="matrix(1 0 0 1 923.3493 645.2688)" class="st4 st34">Electronics</text>
	<text transform="matrix(1 0 0 1 1089.5233 668.3886)" class="st4 st34">Textiles</text>
	<text transform="matrix(1 0 0 1 1030.4937 805.5745)" class="st4 st34">Laser Cutting</text>
	<text transform="matrix(1 0 0 1 871.7998 804.8186)" class="st4 st34">Computer Hub</text>
	<text transform="matrix(1 0 0 1 775.6087 806.7883)" class="st4 st34">Graphics</text>
	<text transform="matrix(1 0 0 1 1062.4111 505.8157)"><tspan x="0" y="0" class="st4 st34">General </tspan><tspan x="-13" y="12" class="st4 st34">Woodworking</tspan></text>
	<text transform="matrix(1 0 0 1 1050.6045 326.8738)"><tspan x="0" y="0" class="st4 st34">Millwork and </tspan><tspan x="13.9" y="12" class="st4 st34">Joinery</tspan></text>
	<text transform="matrix(1 0 0 1 892.665 200.3919)" class="st4 st34">Big Laser</text>
	<text transform="matrix(1 0 0 1 806.1795 316.1405)" class="st4 st34">Metal Fabrication</text>
	<text transform="matrix(1 0 0 1 784.0897 205.8318)" class="st4 st34">CNC Plasma</text>
	<text transform="matrix(1 0 0 1 689.6233 195.5325)"><tspan x="0" y="0" class="st4 st34">Welding and </tspan><tspan x="-5" y="12" class="st4 st34">Manual Plasma</tspan></text>
	<text transform="matrix(1 0 0 1 1009.6826 197.2039)" class="st4 st34">CNC Router</text>
	<text transform="matrix(1 0 0 1 574.0859 265.6008)" class="st4 st34">Metal Machining</text>
	<rect x="862.5" y="544.3" class="st7" width="65.2" height="20.3"/>
	<text transform="matrix(1 0 0 1 876.1961 551.4672)" class="st4 st34">Plastics</text>
	<rect x="644.2" y="544.3" class="st7" width="65.2" height="20.3"/>
	<text transform="matrix(1 0 0 1 654.5891 551.4672)" class="st4 st34">Finishing</text>
	<rect x="533.4" y="492.7" class="st7" width="20.3" height="65.2"/>
	<text transform="matrix(-1.836970e-16 -1 1 -1.836970e-16 540.5545 543.9377)" class="st4 st34">Storage</text>
	<rect x="470.8" y="492.7" class="st7" width="20.3" height="65.2"/>
	<text transform="matrix(-1.836970e-16 -1 1 -1.836970e-16 477.9716 543.9387)" class="st4 st34">Storage</text>
	<rect x="469.9" y="295.8" class="st7" width="20.3" height="65.2"/>
	<text transform="matrix(-1.836970e-16 -1 1 -1.836970e-16 477.0771 347.0256)" class="st4 st34">Storage</text>
	<rect x="533.4" y="235.1" class="st7" width="20.3" height="65.2"/>
	<text transform="matrix(-1.836970e-16 -1 1 -1.836970e-16 540.5099 286.3196)" class="st4 st34">Storage</text>
	<rect x="470.8" y="184.1" class="st7" width="20.3" height="65.2"/>
	<text transform="matrix(-1.836970e-16 -1 1 -1.836970e-16 477.9716 235.3089)" class="st4 st34">Storage</text>
	<rect x="514.2" y="696.3" class="st7" width="20.3" height="65.2"/>
	<text transform="matrix(-1.836970e-16 -1 1 -1.836970e-16 521.3428 747.552)" class="st4 st34">Storage</text>
	<text transform="matrix(1 0 0 1 312.6066 459.325)" class="st4 st34">Storage</text>
</g>
</svg>
